<?xml version="1.0" standalone="no"?>
<!DOCTYPE svg PUBLIC "-//W3C//DTD SVG 20010904//EN"
 "http://www.w3.org/TR/2001/REC-SVG-20010904/DTD/svg10.dtd">
<svg version="1.0" xmlns="http://www.w3.org/2000/svg"
 width="1080.000000pt" height="321.000000pt" viewBox="0 0 1080.000000 321.000000"
 preserveAspectRatio="xMidYMid meet">

<g transform="translate(0.000000,321.000000) scale(0.100000,-0.100000)"
fill="#000000" stroke="none">
<path d="M0 1605 l0 -1605 5400 0 5400 0 0 1605 0 1605 -5400 0 -5400 0 0
-1605z m6941 1305 c42 0 79 -39 79 -85 0 -20 -12 -59 -26 -88 -67 -133 -159
-229 -270 -282 l-78 -38 -21 27 -21 26 -41 -20 c-46 -22 -93 -26 -93 -9 0 41
67 216 103 270 75 112 123 157 180 173 104 27 132 33 145 30 8 -2 27 -4 43 -4z
m1593 -179 c16 -18 16 -22 -9 -70 -14 -29 -72 -109 -128 -179 -123 -152 -122
-149 -107 -167 25 -30 -25 -100 -259 -360 -64 -71 -129 -146 -143 -165 l-25
-35 5 -376 c5 -423 7 -409 -69 -409 -35 0 -40 4 -59 41 -12 23 -24 39 -27 36
-2 -3 2 -108 11 -234 20 -280 21 -341 8 -373 -14 -36 -47 -63 -69 -56 -36 11
-108 155 -225 446 -55 136 -161 355 -178 365 -19 12 -384 -340 -561 -541 -67
-76 -109 -116 -127 -120 -15 -3 -40 -10 -56 -15 -70 -22 -130 1 -218 84 -34
31 -38 40 -38 86 0 30 -7 62 -15 75 -22 33 -7 64 63 138 70 74 331 314 592
544 107 94 203 180 212 191 16 18 17 24 4 69 -8 27 -28 117 -46 201 -30 146
-31 153 -15 187 16 33 15 38 -14 145 -43 154 -43 154 34 226 l65 60 98 -7
c125 -10 150 -5 191 37 33 34 35 35 115 35 91 0 118 -12 162 -71 28 -38 68
-159 79 -236 8 -62 19 -66 67 -25 119 103 635 492 651 492 8 0 22 -9 31 -19z
m-4841 -97 c25 -9 65 -34 88 -56 51 -50 106 -164 120 -249 6 -35 17 -88 25
-118 9 -29 18 -87 21 -127 3 -41 10 -77 14 -80 16 -9 9 -53 -9 -66 -11 -7 -37
-66 -60 -134 -33 -95 -42 -135 -42 -189 0 -57 -5 -77 -35 -134 -85 -160 -318
-413 -484 -524 -54 -37 -104 -67 -109 -67 -5 0 -61 -22 -123 -49 -172 -73
-234 -89 -389 -97 -152 -7 -223 5 -312 53 -65 36 -147 125 -183 201 -26 53
-34 62 -57 62 -53 0 -61 22 -55 140 15 263 138 550 380 888 175 245 392 397
682 479 293 82 432 100 528 67z m2325 -1 c175 -5 212 -8 208 -19 -3 -8 -55
-96 -115 -197 -274 -459 -518 -909 -867 -1602 l-271 -540 -48 -3 -48 -3 7 98
c4 54 11 141 15 193 4 52 3 100 -1 106 -28 38 -84 8 -286 -154 -51 -41 -95
-72 -99 -69 -3 3 73 156 170 339 339 647 326 613 167 423 -98 -118 -132 -142
-207 -151 -87 -10 -130 -25 -144 -50 -14 -26 -75 -49 -104 -38 -16 7 -17 18
-11 108 4 56 13 139 20 186 7 47 11 87 9 90 -5 6 -23 -17 -125 -160 -199 -279
-215 -297 -254 -304 -23 -5 -54 -23 -83 -50 -90 -85 -186 -113 -248 -75 -19
12 -41 18 -50 15 -8 -4 -30 -4 -48 0 -30 5 -33 10 -39 50 -3 24 -1 55 4 69 45
118 457 672 689 925 43 47 113 135 157 195 221 308 428 544 493 562 13 3 39 1
57 -6 18 -6 44 -9 58 -5 22 5 33 -1 67 -35 41 -41 42 -42 37 -99 -4 -34 -22
-99 -46 -157 -53 -131 -132 -340 -143 -379 -8 -29 -5 -27 44 24 28 31 116 127
193 215 204 231 453 471 501 485 21 5 45 15 53 20 8 6 29 8 45 5 17 -3 126 -8
243 -12z m605 -306 c31 -16 43 -18 63 -8 27 12 28 11 38 -46 3 -18 2 -35 -3
-37 -5 -3 -16 -28 -25 -56 -20 -61 -116 -236 -422 -772 -308 -539 -363 -631
-454 -763 -310 -453 -280 -415 -322 -415 -33 0 -38 3 -38 24 0 13 7 43 16 67
8 24 21 78 29 119 8 41 17 84 20 95 6 19 3 20 -34 17 -51 -5 -57 8 -36 71 50
147 395 842 567 1142 70 121 164 292 210 379 102 196 109 202 256 203 78 0
104 -4 135 -20z"/>
<path d="M3185 2117 c-122 -41 -258 -105 -286 -134 -25 -27 -259 -499 -297
-598 -23 -64 -14 -106 36 -157 l36 -38 96 0 c124 0 203 20 325 80 227 111 311
227 405 559 49 171 35 230 -66 281 -70 35 -158 37 -249 7z"/>
<path d="M2150 1171 c-10 -19 -8 -21 20 -21 25 0 31 4 28 17 -5 26 -35 28 -48
4z"/>
</g>
</svg>
